<mxfile host="app.diagrams.net" modified="2024-02-27T19:18:22.312Z" agent="Mozilla/5.0 (Windows NT 10.0; Win64; x64) AppleWebKit/537.36 (KHTML, like Gecko) Chrome/121.0.0.0 Safari/537.36" etag="YmvzE2_BnRQh_RLsnWiI" version="23.1.1" type="device">
  <diagram name="PÃ¡gina-1" id="FnXcEy9oX77HTSjjAbPD">
    <mxGraphModel dx="1500" dy="807" grid="1" gridSize="10" guides="1" tooltips="1" connect="1" arrows="1" fold="1" page="1" pageScale="1" pageWidth="827" pageHeight="1169" math="0" shadow="0">
      <root>
        <mxCell id="0" />
        <mxCell id="1" parent="0" />
        <mxCell id="H92qAV2mX9yL8JqTNqup-61" style="edgeStyle=orthogonalEdgeStyle;rounded=0;orthogonalLoop=1;jettySize=auto;html=1;exitX=1;exitY=0.5;exitDx=0;exitDy=0;" edge="1" parent="1" source="H92qAV2mX9yL8JqTNqup-21" target="H92qAV2mX9yL8JqTNqup-22">
          <mxGeometry relative="1" as="geometry" />
        </mxCell>
        <mxCell id="H92qAV2mX9yL8JqTNqup-21" value="" style="image;aspect=fixed;perimeter=ellipsePerimeter;html=1;align=center;shadow=0;dashed=0;spacingTop=3;image=img/lib/active_directory/internet_cloud.svg;" vertex="1" parent="1">
          <mxGeometry x="110" y="170" width="80" height="50.4" as="geometry" />
        </mxCell>
        <mxCell id="H92qAV2mX9yL8JqTNqup-45" style="edgeStyle=orthogonalEdgeStyle;rounded=0;orthogonalLoop=1;jettySize=auto;html=1;exitX=1;exitY=0.5;exitDx=0;exitDy=0;entryX=0.25;entryY=0;entryDx=0;entryDy=0;" edge="1" parent="1" source="H92qAV2mX9yL8JqTNqup-22" target="H92qAV2mX9yL8JqTNqup-24">
          <mxGeometry relative="1" as="geometry" />
        </mxCell>
        <mxCell id="H92qAV2mX9yL8JqTNqup-22" value="" style="image;html=1;image=img/lib/clip_art/networking/Modem_128x128.png" vertex="1" parent="1">
          <mxGeometry x="240" y="290" width="80" height="80" as="geometry" />
        </mxCell>
        <mxCell id="H92qAV2mX9yL8JqTNqup-85" style="edgeStyle=orthogonalEdgeStyle;rounded=0;orthogonalLoop=1;jettySize=auto;html=1;exitX=0;exitY=0.5;exitDx=0;exitDy=0;entryX=0.25;entryY=0;entryDx=0;entryDy=0;" edge="1" parent="1" source="H92qAV2mX9yL8JqTNqup-24" target="H92qAV2mX9yL8JqTNqup-28">
          <mxGeometry relative="1" as="geometry" />
        </mxCell>
        <mxCell id="H92qAV2mX9yL8JqTNqup-24" value="" style="image;html=1;image=img/lib/clip_art/computers/Server_Rack_128x128.png" vertex="1" parent="1">
          <mxGeometry x="396.5" y="350" width="80" height="80" as="geometry" />
        </mxCell>
        <mxCell id="H92qAV2mX9yL8JqTNqup-47" style="edgeStyle=orthogonalEdgeStyle;rounded=0;orthogonalLoop=1;jettySize=auto;html=1;exitX=0;exitY=0.5;exitDx=0;exitDy=0;entryX=0.5;entryY=1;entryDx=0;entryDy=0;" edge="1" parent="1" source="H92qAV2mX9yL8JqTNqup-28" target="H92qAV2mX9yL8JqTNqup-34">
          <mxGeometry relative="1" as="geometry" />
        </mxCell>
        <mxCell id="H92qAV2mX9yL8JqTNqup-48" style="edgeStyle=orthogonalEdgeStyle;rounded=0;orthogonalLoop=1;jettySize=auto;html=1;exitX=0;exitY=0.5;exitDx=0;exitDy=0;entryX=0.5;entryY=1;entryDx=0;entryDy=0;" edge="1" parent="1" source="H92qAV2mX9yL8JqTNqup-28" target="H92qAV2mX9yL8JqTNqup-35">
          <mxGeometry relative="1" as="geometry" />
        </mxCell>
        <mxCell id="H92qAV2mX9yL8JqTNqup-49" style="edgeStyle=orthogonalEdgeStyle;rounded=0;orthogonalLoop=1;jettySize=auto;html=1;exitX=0;exitY=0.5;exitDx=0;exitDy=0;entryX=0.5;entryY=1;entryDx=0;entryDy=0;" edge="1" parent="1" source="H92qAV2mX9yL8JqTNqup-28" target="H92qAV2mX9yL8JqTNqup-46">
          <mxGeometry relative="1" as="geometry" />
        </mxCell>
        <mxCell id="H92qAV2mX9yL8JqTNqup-53" style="edgeStyle=orthogonalEdgeStyle;rounded=0;orthogonalLoop=1;jettySize=auto;html=1;exitX=0.5;exitY=1;exitDx=0;exitDy=0;" edge="1" parent="1" source="H92qAV2mX9yL8JqTNqup-28" target="H92qAV2mX9yL8JqTNqup-41">
          <mxGeometry relative="1" as="geometry" />
        </mxCell>
        <mxCell id="H92qAV2mX9yL8JqTNqup-54" style="edgeStyle=orthogonalEdgeStyle;rounded=0;orthogonalLoop=1;jettySize=auto;html=1;exitX=0.5;exitY=1;exitDx=0;exitDy=0;" edge="1" parent="1" source="H92qAV2mX9yL8JqTNqup-28" target="H92qAV2mX9yL8JqTNqup-42">
          <mxGeometry relative="1" as="geometry" />
        </mxCell>
        <mxCell id="H92qAV2mX9yL8JqTNqup-55" style="edgeStyle=orthogonalEdgeStyle;rounded=0;orthogonalLoop=1;jettySize=auto;html=1;exitX=0.5;exitY=1;exitDx=0;exitDy=0;" edge="1" parent="1" source="H92qAV2mX9yL8JqTNqup-28" target="H92qAV2mX9yL8JqTNqup-43">
          <mxGeometry relative="1" as="geometry" />
        </mxCell>
        <mxCell id="H92qAV2mX9yL8JqTNqup-59" style="edgeStyle=orthogonalEdgeStyle;rounded=0;orthogonalLoop=1;jettySize=auto;html=1;exitX=0.5;exitY=1;exitDx=0;exitDy=0;" edge="1" parent="1" source="H92qAV2mX9yL8JqTNqup-28" target="H92qAV2mX9yL8JqTNqup-44">
          <mxGeometry relative="1" as="geometry" />
        </mxCell>
        <mxCell id="H92qAV2mX9yL8JqTNqup-107" style="edgeStyle=orthogonalEdgeStyle;rounded=0;orthogonalLoop=1;jettySize=auto;html=1;exitX=1;exitY=0.5;exitDx=0;exitDy=0;entryX=0;entryY=0.5;entryDx=0;entryDy=0;" edge="1" parent="1" source="H92qAV2mX9yL8JqTNqup-28" target="H92qAV2mX9yL8JqTNqup-89">
          <mxGeometry relative="1" as="geometry" />
        </mxCell>
        <mxCell id="H92qAV2mX9yL8JqTNqup-28" value="" style="image;html=1;image=img/lib/clip_art/networking/Switch_128x128.png" vertex="1" parent="1">
          <mxGeometry x="340" y="505" width="80" height="80" as="geometry" />
        </mxCell>
        <mxCell id="H92qAV2mX9yL8JqTNqup-91" style="edgeStyle=orthogonalEdgeStyle;rounded=0;orthogonalLoop=1;jettySize=auto;html=1;exitX=0.25;exitY=1;exitDx=0;exitDy=0;entryX=0.5;entryY=0;entryDx=0;entryDy=0;" edge="1" parent="1" source="H92qAV2mX9yL8JqTNqup-31" target="H92qAV2mX9yL8JqTNqup-90">
          <mxGeometry relative="1" as="geometry" />
        </mxCell>
        <mxCell id="H92qAV2mX9yL8JqTNqup-31" value="" style="shape=image;html=1;verticalAlign=top;verticalLabelPosition=bottom;labelBackgroundColor=#ffffff;imageAspect=0;aspect=fixed;image=https://cdn4.iconfinder.com/data/icons/ios-web-user-interface-multi-circle-flat-vol-2/512/Archive_archives_files_hosting_database_server_storage-128.png" vertex="1" parent="1">
          <mxGeometry x="810" y="530" width="80" height="80" as="geometry" />
        </mxCell>
        <mxCell id="H92qAV2mX9yL8JqTNqup-34" value="" style="image;html=1;image=img/lib/clip_art/computers/Printer_128x128.png" vertex="1" parent="1">
          <mxGeometry x="10" y="430" width="80" height="80" as="geometry" />
        </mxCell>
        <mxCell id="H92qAV2mX9yL8JqTNqup-35" value="" style="image;html=1;image=img/lib/clip_art/computers/Printer_128x128.png" vertex="1" parent="1">
          <mxGeometry x="120" y="440" width="80" height="80" as="geometry" />
        </mxCell>
        <mxCell id="H92qAV2mX9yL8JqTNqup-41" value="" style="sketch=0;pointerEvents=1;shadow=0;dashed=0;html=1;strokeColor=none;fillColor=#505050;labelPosition=center;verticalLabelPosition=bottom;verticalAlign=top;outlineConnect=0;align=center;shape=mxgraph.office.devices.workstation_pc;" vertex="1" parent="1">
          <mxGeometry x="147" y="660" width="53" height="59" as="geometry" />
        </mxCell>
        <mxCell id="H92qAV2mX9yL8JqTNqup-42" value="" style="sketch=0;pointerEvents=1;shadow=0;dashed=0;html=1;strokeColor=none;fillColor=#505050;labelPosition=center;verticalLabelPosition=bottom;verticalAlign=top;outlineConnect=0;align=center;shape=mxgraph.office.devices.workstation_pc;" vertex="1" parent="1">
          <mxGeometry x="287" y="660" width="53" height="59" as="geometry" />
        </mxCell>
        <mxCell id="H92qAV2mX9yL8JqTNqup-44" value="" style="sketch=0;pointerEvents=1;shadow=0;dashed=0;html=1;strokeColor=none;fillColor=#505050;labelPosition=center;verticalLabelPosition=bottom;verticalAlign=top;outlineConnect=0;align=center;shape=mxgraph.office.devices.workstation_pc;" vertex="1" parent="1">
          <mxGeometry x="530" y="660" width="53" height="59" as="geometry" />
        </mxCell>
        <mxCell id="H92qAV2mX9yL8JqTNqup-46" value="" style="image;html=1;image=img/lib/clip_art/computers/Printer_128x128.png" vertex="1" parent="1">
          <mxGeometry x="243.5" y="440" width="80" height="80" as="geometry" />
        </mxCell>
        <mxCell id="H92qAV2mX9yL8JqTNqup-76" style="edgeStyle=orthogonalEdgeStyle;rounded=0;orthogonalLoop=1;jettySize=auto;html=1;exitX=0.5;exitY=1;exitDx=0;exitDy=0;" edge="1" parent="1" source="H92qAV2mX9yL8JqTNqup-57">
          <mxGeometry relative="1" as="geometry">
            <mxPoint x="1268.571428571429" y="480" as="targetPoint" />
          </mxGeometry>
        </mxCell>
        <mxCell id="H92qAV2mX9yL8JqTNqup-77" style="edgeStyle=orthogonalEdgeStyle;rounded=0;orthogonalLoop=1;jettySize=auto;html=1;exitX=0.5;exitY=1;exitDx=0;exitDy=0;" edge="1" parent="1" source="H92qAV2mX9yL8JqTNqup-57">
          <mxGeometry relative="1" as="geometry">
            <mxPoint x="1105" y="480" as="targetPoint" />
          </mxGeometry>
        </mxCell>
        <mxCell id="H92qAV2mX9yL8JqTNqup-78" style="edgeStyle=orthogonalEdgeStyle;rounded=0;orthogonalLoop=1;jettySize=auto;html=1;exitX=1;exitY=0.5;exitDx=0;exitDy=0;" edge="1" parent="1" source="H92qAV2mX9yL8JqTNqup-57" target="H92qAV2mX9yL8JqTNqup-65">
          <mxGeometry relative="1" as="geometry" />
        </mxCell>
        <mxCell id="H92qAV2mX9yL8JqTNqup-79" style="edgeStyle=orthogonalEdgeStyle;rounded=0;orthogonalLoop=1;jettySize=auto;html=1;exitX=1;exitY=0.5;exitDx=0;exitDy=0;" edge="1" parent="1" source="H92qAV2mX9yL8JqTNqup-57" target="H92qAV2mX9yL8JqTNqup-66">
          <mxGeometry relative="1" as="geometry" />
        </mxCell>
        <mxCell id="H92qAV2mX9yL8JqTNqup-80" style="edgeStyle=orthogonalEdgeStyle;rounded=0;orthogonalLoop=1;jettySize=auto;html=1;exitX=1;exitY=0.5;exitDx=0;exitDy=0;" edge="1" parent="1" source="H92qAV2mX9yL8JqTNqup-57" target="H92qAV2mX9yL8JqTNqup-70">
          <mxGeometry relative="1" as="geometry" />
        </mxCell>
        <mxCell id="H92qAV2mX9yL8JqTNqup-81" style="edgeStyle=orthogonalEdgeStyle;rounded=0;orthogonalLoop=1;jettySize=auto;html=1;exitX=1;exitY=0.5;exitDx=0;exitDy=0;" edge="1" parent="1" source="H92qAV2mX9yL8JqTNqup-57" target="H92qAV2mX9yL8JqTNqup-69">
          <mxGeometry relative="1" as="geometry" />
        </mxCell>
        <mxCell id="H92qAV2mX9yL8JqTNqup-83" style="edgeStyle=orthogonalEdgeStyle;rounded=0;orthogonalLoop=1;jettySize=auto;html=1;exitX=0.5;exitY=0;exitDx=0;exitDy=0;" edge="1" parent="1" source="H92qAV2mX9yL8JqTNqup-57" target="H92qAV2mX9yL8JqTNqup-67">
          <mxGeometry relative="1" as="geometry" />
        </mxCell>
        <mxCell id="H92qAV2mX9yL8JqTNqup-58" value="" style="edgeStyle=orthogonalEdgeStyle;rounded=0;orthogonalLoop=1;jettySize=auto;html=1;exitX=0.5;exitY=1;exitDx=0;exitDy=0;" edge="1" parent="1" source="H92qAV2mX9yL8JqTNqup-28" target="H92qAV2mX9yL8JqTNqup-43">
          <mxGeometry relative="1" as="geometry">
            <mxPoint x="380" y="585" as="sourcePoint" />
            <mxPoint x="697" y="770" as="targetPoint" />
          </mxGeometry>
        </mxCell>
        <mxCell id="H92qAV2mX9yL8JqTNqup-43" value="" style="sketch=0;pointerEvents=1;shadow=0;dashed=0;html=1;strokeColor=none;fillColor=#505050;labelPosition=center;verticalLabelPosition=bottom;verticalAlign=top;outlineConnect=0;align=center;shape=mxgraph.office.devices.workstation_pc;" vertex="1" parent="1">
          <mxGeometry x="410" y="660" width="53" height="59" as="geometry" />
        </mxCell>
        <mxCell id="H92qAV2mX9yL8JqTNqup-65" value="" style="sketch=0;pointerEvents=1;shadow=0;dashed=0;html=1;strokeColor=none;fillColor=#505050;labelPosition=center;verticalLabelPosition=bottom;verticalAlign=top;outlineConnect=0;align=center;shape=mxgraph.office.devices.workstation_pc;" vertex="1" parent="1">
          <mxGeometry x="1380" y="210" width="53" height="59" as="geometry" />
        </mxCell>
        <mxCell id="H92qAV2mX9yL8JqTNqup-66" value="" style="sketch=0;pointerEvents=1;shadow=0;dashed=0;html=1;strokeColor=none;fillColor=#505050;labelPosition=center;verticalLabelPosition=bottom;verticalAlign=top;outlineConnect=0;align=center;shape=mxgraph.office.devices.workstation_pc;" vertex="1" parent="1">
          <mxGeometry x="1270" y="210" width="53" height="59" as="geometry" />
        </mxCell>
        <mxCell id="H92qAV2mX9yL8JqTNqup-67" value="" style="sketch=0;pointerEvents=1;shadow=0;dashed=0;html=1;strokeColor=none;fillColor=#505050;labelPosition=center;verticalLabelPosition=bottom;verticalAlign=top;outlineConnect=0;align=center;shape=mxgraph.office.devices.workstation_pc;" vertex="1" parent="1">
          <mxGeometry x="980" y="210" width="53" height="59" as="geometry" />
        </mxCell>
        <mxCell id="H92qAV2mX9yL8JqTNqup-69" value="" style="sketch=0;pointerEvents=1;shadow=0;dashed=0;html=1;strokeColor=none;fillColor=#505050;labelPosition=center;verticalLabelPosition=bottom;verticalAlign=top;outlineConnect=0;align=center;shape=mxgraph.office.devices.workstation_pc;" vertex="1" parent="1">
          <mxGeometry x="1078.5" y="210" width="53" height="59" as="geometry" />
        </mxCell>
        <mxCell id="H92qAV2mX9yL8JqTNqup-70" value="" style="sketch=0;pointerEvents=1;shadow=0;dashed=0;html=1;strokeColor=none;fillColor=#505050;labelPosition=center;verticalLabelPosition=bottom;verticalAlign=top;outlineConnect=0;align=center;shape=mxgraph.office.devices.workstation_pc;" vertex="1" parent="1">
          <mxGeometry x="1167" y="210" width="53" height="59" as="geometry" />
        </mxCell>
        <mxCell id="H92qAV2mX9yL8JqTNqup-74" value="" style="sketch=0;pointerEvents=1;shadow=0;dashed=0;html=1;strokeColor=none;fillColor=#505050;labelPosition=center;verticalLabelPosition=bottom;verticalAlign=top;outlineConnect=0;align=center;shape=mxgraph.office.devices.printer;" vertex="1" parent="1">
          <mxGeometry x="1065" y="505" width="90" height="80" as="geometry" />
        </mxCell>
        <mxCell id="H92qAV2mX9yL8JqTNqup-75" value="" style="sketch=0;pointerEvents=1;shadow=0;dashed=0;html=1;strokeColor=none;fillColor=#505050;labelPosition=center;verticalLabelPosition=bottom;verticalAlign=top;outlineConnect=0;align=center;shape=mxgraph.office.devices.printer;" vertex="1" parent="1">
          <mxGeometry x="1225" y="505" width="97" height="80" as="geometry" />
        </mxCell>
        <mxCell id="H92qAV2mX9yL8JqTNqup-96" style="edgeStyle=orthogonalEdgeStyle;rounded=0;orthogonalLoop=1;jettySize=auto;html=1;exitX=0.75;exitY=0;exitDx=0;exitDy=0;entryX=0.25;entryY=1;entryDx=0;entryDy=0;" edge="1" parent="1" source="H92qAV2mX9yL8JqTNqup-86" target="H92qAV2mX9yL8JqTNqup-90">
          <mxGeometry relative="1" as="geometry" />
        </mxCell>
        <mxCell id="H92qAV2mX9yL8JqTNqup-86" value="v" style="image;html=1;image=img/lib/clip_art/computers/Netbook_128x128.png" vertex="1" parent="1">
          <mxGeometry x="640" y="890" width="80" height="80" as="geometry" />
        </mxCell>
        <mxCell id="H92qAV2mX9yL8JqTNqup-88" style="edgeStyle=orthogonalEdgeStyle;rounded=0;orthogonalLoop=1;jettySize=auto;html=1;entryX=0;entryY=0.5;entryDx=0;entryDy=0;" edge="1" parent="1" source="H92qAV2mX9yL8JqTNqup-87" target="H92qAV2mX9yL8JqTNqup-57">
          <mxGeometry relative="1" as="geometry" />
        </mxCell>
        <mxCell id="H92qAV2mX9yL8JqTNqup-87" value="" style="image;html=1;image=img/lib/clip_art/computers/Server_Rack_Partial_128x128.png" vertex="1" parent="1">
          <mxGeometry x="780" y="260" width="80" height="80" as="geometry" />
        </mxCell>
        <mxCell id="H92qAV2mX9yL8JqTNqup-89" value="" style="image;html=1;image=img/lib/clip_art/networking/Print_Server_128x128.png;shadow=1;" vertex="1" parent="1">
          <mxGeometry x="610" y="460" width="80" height="80" as="geometry" />
        </mxCell>
        <mxCell id="H92qAV2mX9yL8JqTNqup-106" style="edgeStyle=orthogonalEdgeStyle;rounded=0;orthogonalLoop=1;jettySize=auto;html=1;exitX=0;exitY=0.75;exitDx=0;exitDy=0;entryX=1;entryY=0.5;entryDx=0;entryDy=0;" edge="1" parent="1" source="H92qAV2mX9yL8JqTNqup-57" target="H92qAV2mX9yL8JqTNqup-89">
          <mxGeometry relative="1" as="geometry" />
        </mxCell>
        <mxCell id="H92qAV2mX9yL8JqTNqup-57" value="" style="image;html=1;image=img/lib/clip_art/networking/Print_Server_128x128.png" vertex="1" parent="1">
          <mxGeometry x="920" y="340" width="80" height="80" as="geometry" />
        </mxCell>
        <mxCell id="H92qAV2mX9yL8JqTNqup-108" style="edgeStyle=orthogonalEdgeStyle;rounded=0;orthogonalLoop=1;jettySize=auto;html=1;exitX=0;exitY=0.25;exitDx=0;exitDy=0;" edge="1" parent="1" source="H92qAV2mX9yL8JqTNqup-90" target="H92qAV2mX9yL8JqTNqup-89">
          <mxGeometry relative="1" as="geometry" />
        </mxCell>
        <mxCell id="H92qAV2mX9yL8JqTNqup-90" value="" style="image;html=1;image=img/lib/clip_art/networking/Print_Server_128x128.png;shadow=1;" vertex="1" parent="1">
          <mxGeometry x="747" y="680" width="80" height="80" as="geometry" />
        </mxCell>
        <mxCell id="H92qAV2mX9yL8JqTNqup-95" style="edgeStyle=orthogonalEdgeStyle;rounded=0;orthogonalLoop=1;jettySize=auto;html=1;exitX=0.5;exitY=0;exitDx=0;exitDy=0;" edge="1" parent="1" source="H92qAV2mX9yL8JqTNqup-93" target="H92qAV2mX9yL8JqTNqup-90">
          <mxGeometry relative="1" as="geometry" />
        </mxCell>
        <mxCell id="H92qAV2mX9yL8JqTNqup-93" value="v" style="image;html=1;image=img/lib/clip_art/computers/Netbook_128x128.png" vertex="1" parent="1">
          <mxGeometry x="760" y="930" width="80" height="110" as="geometry" />
        </mxCell>
        <mxCell id="H92qAV2mX9yL8JqTNqup-97" style="edgeStyle=orthogonalEdgeStyle;rounded=0;orthogonalLoop=1;jettySize=auto;html=1;exitX=1;exitY=0.25;exitDx=0;exitDy=0;entryX=0;entryY=0.75;entryDx=0;entryDy=0;" edge="1" parent="1" source="H92qAV2mX9yL8JqTNqup-94" target="H92qAV2mX9yL8JqTNqup-90">
          <mxGeometry relative="1" as="geometry" />
        </mxCell>
        <mxCell id="H92qAV2mX9yL8JqTNqup-94" value="v" style="image;html=1;image=img/lib/clip_art/computers/Netbook_128x128.png" vertex="1" parent="1">
          <mxGeometry x="610" y="760" width="80" height="80" as="geometry" />
        </mxCell>
        <mxCell id="H92qAV2mX9yL8JqTNqup-103" style="edgeStyle=orthogonalEdgeStyle;rounded=0;orthogonalLoop=1;jettySize=auto;html=1;entryX=1;entryY=0.75;entryDx=0;entryDy=0;" edge="1" parent="1" source="H92qAV2mX9yL8JqTNqup-98" target="H92qAV2mX9yL8JqTNqup-90">
          <mxGeometry relative="1" as="geometry" />
        </mxCell>
        <mxCell id="H92qAV2mX9yL8JqTNqup-98" value="" style="sketch=0;pointerEvents=1;shadow=0;dashed=0;html=1;strokeColor=none;fillColor=#505050;labelPosition=center;verticalLabelPosition=bottom;verticalAlign=top;outlineConnect=0;align=center;shape=mxgraph.office.devices.workstation_pc;" vertex="1" parent="1">
          <mxGeometry x="1025.5" y="750" width="53" height="59" as="geometry" />
        </mxCell>
        <mxCell id="H92qAV2mX9yL8JqTNqup-101" style="edgeStyle=orthogonalEdgeStyle;rounded=0;orthogonalLoop=1;jettySize=auto;html=1;entryX=0.75;entryY=1;entryDx=0;entryDy=0;" edge="1" parent="1" source="H92qAV2mX9yL8JqTNqup-99" target="H92qAV2mX9yL8JqTNqup-90">
          <mxGeometry relative="1" as="geometry" />
        </mxCell>
        <mxCell id="H92qAV2mX9yL8JqTNqup-99" value="" style="sketch=0;pointerEvents=1;shadow=0;dashed=0;html=1;strokeColor=none;fillColor=#505050;labelPosition=center;verticalLabelPosition=bottom;verticalAlign=top;outlineConnect=0;align=center;shape=mxgraph.office.devices.workstation_pc;" vertex="1" parent="1">
          <mxGeometry x="850" y="890" width="53" height="59" as="geometry" />
        </mxCell>
        <mxCell id="H92qAV2mX9yL8JqTNqup-102" style="edgeStyle=orthogonalEdgeStyle;rounded=0;orthogonalLoop=1;jettySize=auto;html=1;entryX=1;entryY=1;entryDx=0;entryDy=0;" edge="1" parent="1" source="H92qAV2mX9yL8JqTNqup-100" target="H92qAV2mX9yL8JqTNqup-90">
          <mxGeometry relative="1" as="geometry" />
        </mxCell>
        <mxCell id="H92qAV2mX9yL8JqTNqup-100" value="" style="sketch=0;pointerEvents=1;shadow=0;dashed=0;html=1;strokeColor=none;fillColor=#505050;labelPosition=center;verticalLabelPosition=bottom;verticalAlign=top;outlineConnect=0;align=center;shape=mxgraph.office.devices.workstation_pc;" vertex="1" parent="1">
          <mxGeometry x="980" y="840" width="53" height="59" as="geometry" />
        </mxCell>
        <mxCell id="H92qAV2mX9yL8JqTNqup-105" style="edgeStyle=orthogonalEdgeStyle;rounded=0;orthogonalLoop=1;jettySize=auto;html=1;entryX=1;entryY=0.25;entryDx=0;entryDy=0;" edge="1" parent="1" source="H92qAV2mX9yL8JqTNqup-104" target="H92qAV2mX9yL8JqTNqup-90">
          <mxGeometry relative="1" as="geometry" />
        </mxCell>
        <mxCell id="H92qAV2mX9yL8JqTNqup-104" value="" style="sketch=0;pointerEvents=1;shadow=0;dashed=0;html=1;strokeColor=none;fillColor=#505050;labelPosition=center;verticalLabelPosition=bottom;verticalAlign=top;outlineConnect=0;align=center;shape=mxgraph.office.devices.printer;" vertex="1" parent="1">
          <mxGeometry x="950" y="610" width="80" height="60" as="geometry" />
        </mxCell>
      </root>
    </mxGraphModel>
  </diagram>
</mxfile>
